<svg xmlns="http://www.w3.org/2000/svg" viewBox="0 0 64 64" fill="none">
  <rect width="64" height="64" rx="16" fill="url(#bg)"/>
  <path d="M18 24C18 20.6863 20.6863 18 24 18H40C43.3137 18 46 20.6863 46 24V40C46 43.3137 43.3137 46 40 46H24C20.6863 46 18 43.3137 18 40V24Z" fill="#07172F"/>
  <path d="M24 33.5C24 29.3579 27.3579 26 31.5 26H40V31H31.5C30.1193 31 29 32.1193 29 33.5C29 34.8807 30.1193 36 31.5 36H40V41H31.5C27.3579 41 24 37.6421 24 33.5Z" fill="#18A9D8"/>
  <circle cx="24" cy="33.5" r="4" fill="#14F195"/>
  <defs>
    <linearGradient id="bg" x1="6" y1="6" x2="58" y2="58" gradientUnits="userSpaceOnUse">
      <stop stop-color="#10204A"/>
      <stop offset="1" stop-color="#0A1024"/>
    </linearGradient>
  </defs>
</svg>
